<svg width="132" height="26" viewBox="0 0 132 26" fill="none" xmlns="http://www.w3.org/2000/svg">
<g clip-path="url(#clip0_14_18)">
<path d="M124.523 15.0833H111.333V12.9166H124.523L118.456 6.84998L120 5.33331L128.667 14L120 22.6666L118.456 21.15L124.523 15.0833Z" fill="white"/>
</g>
<path d="M10.4844 5.35938V7.05664H3.7168V16.4453C6.93945 16.4346 9.16309 16.3164 11.6875 15.8223L11.9238 17.498C9.15234 18.0137 6.81055 18.1426 3.17969 18.1426H1.6543V5.35938H10.4844ZM16.7793 3.57617V22.8691H14.7383V12.1484H9.38867V10.4512H14.7383V3.57617H16.7793ZM40.2188 3.57617V7.59375H43.0117V9.29102H40.2188V13.3086H38.1777V3.57617H40.2188ZM40.2188 14.1895V19.0664H29.8203V20.957H40.8848V22.5898H27.8223V17.541H38.1992V15.7793H27.7793V14.1895H40.2188ZM30.4434 4.24219C33.3652 4.24219 35.4922 6.00391 35.4922 8.53906C35.4922 11.0742 33.3652 12.8359 30.4434 12.8359C27.5215 12.8359 25.373 11.0742 25.3945 8.53906C25.373 6.00391 27.5215 4.24219 30.4434 4.24219ZM30.4434 5.91797C28.6602 5.91797 27.3711 6.9707 27.3711 8.53906C27.3711 10.1074 28.6602 11.2031 30.4434 11.2031C32.2051 11.2031 33.5156 10.1074 33.5156 8.53906C33.5156 6.9707 32.2051 5.91797 30.4434 5.91797ZM49.2637 5.01562C52.1426 5.01562 54.1836 7.63672 54.2051 11.7617C54.1836 15.9082 52.1426 18.5293 49.2637 18.5293C46.3848 18.5293 44.3223 15.9082 44.3438 11.7617C44.3223 7.63672 46.3848 5.01562 49.2637 5.01562ZM49.2637 6.8418C47.502 6.8418 46.2988 8.73242 46.2988 11.7617C46.2988 14.8125 47.502 16.7031 49.2637 16.7031C51.0469 16.7031 52.25 14.8125 52.25 11.7617C52.25 8.73242 51.0469 6.8418 49.2637 6.8418ZM59.1035 3.57617V11.1172H62.1973V12.8359H59.1035V22.8262H57.0625V3.57617H59.1035ZM80.7383 18.7441V20.4414H63.1211V18.7441H70.877V14.791H65.1406V4.88672H67.1816V8.19531H76.6348V4.88672H78.6543V14.791H72.8965V18.7441H80.7383ZM67.1816 13.1367H76.6348V9.84961H67.1816V13.1367ZM98.1406 3.57617V22.8262H96.0781V3.57617H98.1406ZM92.4043 5.63867C92.4043 11.2676 89.998 16.166 83.4023 19.3242L82.3281 17.6699C87.4521 15.2314 89.9443 11.7617 90.3418 7.27148H83.252V5.63867H92.4043Z" fill="white"/>
<defs>
<clipPath id="clip0_14_18">
<rect width="26" height="26" fill="white" transform="translate(106)"/>
</clipPath>
</defs>
</svg>
