<svg width="112" height="24" viewBox="0 0 112 24" fill="none" xmlns="http://www.w3.org/2000/svg">
<path d="M99.8896 4.00305L107.802 11.9142L107.873 11.9855L107.802 12.0558L99.8193 20.0382L99.749 19.9689L98.3398 18.5841L98.2676 18.5138L98.3389 18.4415L103.707 13.0743H91.8076V10.8966H103.707L98.2676 5.45715L98.3398 5.38684L99.749 4.00208L99.8193 3.93274L99.8896 4.00305Z" fill="#1A4B8C" stroke="#1A4B8C" stroke-width="0.2"/>
<path d="M9.31348 5.4408V7.26892H4.28613V14.3705C6.61523 14.3441 8.29395 14.2386 10.1748 13.8959L10.4033 15.7064C8.20605 16.1283 6.27246 16.2162 3.31934 16.1986H2.01855V5.4408H9.31348ZM14.7803 4.03455V20.0658H12.5479V11.3998H8.52246V9.57166H12.5479V4.03455H14.7803ZM33.6592 4.03455V7.1283H35.8213V8.974H33.6592V12.0326H31.4092V4.03455H33.6592ZM33.6592 12.6654V17.0248H25.2744V18.097H34.1162V19.8549H23.0771V15.4076H31.4268V14.3881H23.042V12.6654H33.6592ZM25.3799 4.50916C27.8408 4.52673 29.6689 6.0033 29.6689 8.13025C29.6689 10.2396 27.8408 11.7513 25.3799 11.7513C22.9189 11.7513 21.0732 10.2396 21.0732 8.13025C21.0732 6.0033 22.9189 4.52673 25.3799 4.50916ZM25.3799 6.33728C24.1494 6.33728 23.2529 7.00525 23.2705 8.13025C23.2529 9.27283 24.1494 9.97595 25.3799 9.97595C26.6104 9.97595 27.4893 9.27283 27.4893 8.13025C27.4893 7.00525 26.6104 6.33728 25.3799 6.33728ZM40.8311 5.15955C43.2744 5.15955 45.0322 7.37439 45.0498 10.8549C45.0322 14.3705 43.2744 16.5677 40.8311 16.5677C38.3877 16.5677 36.5947 14.3705 36.6123 10.8549C36.5947 7.37439 38.3877 5.15955 40.8311 5.15955ZM40.8311 7.18103C39.6006 7.18103 38.7744 8.48181 38.7744 10.8549C38.7744 13.2455 39.6006 14.5287 40.8311 14.5287C42.0791 14.5287 42.8877 13.2455 42.9053 10.8549C42.8877 8.48181 42.0791 7.18103 40.8311 7.18103ZM49.1455 4.03455V10.0638H51.501V11.9271H49.1455V20.0306H46.8955V4.03455H49.1455ZM66.7236 16.3392V18.1674H52.0811V16.3392H58.251V13.3861H53.6279V5.05408H55.8779V7.53259H62.8564V5.05408H65.0889V13.3861H60.4834V16.3392H66.7236ZM55.8779 11.5931H62.8564V9.32556H55.8779V11.5931ZM81.085 4.03455V20.0306H78.8174V4.03455H81.085ZM76.2861 5.70447C76.2861 10.556 74.5811 14.5814 68.8682 17.2885L67.6904 15.4955C71.8213 13.5443 73.6406 11.0131 74.001 7.46228H68.5518V5.70447H76.2861Z" fill="#1A4B8C"/>
</svg>
