<svg width="457" height="319" viewBox="0 0 457 319" fill="none" xmlns="http://www.w3.org/2000/svg">
<path d="M19.5508 13.2695C28.916 13.2695 35.8887 19.0801 35.957 27.2148C35.8887 35.418 28.916 41.1602 19.5508 41.1602C10.1172 41.1602 3.14453 35.418 3.14453 27.2148C3.14453 19.0801 10.1172 13.2695 19.5508 13.2695ZM19.5508 19.5586C14.3555 19.5586 10.5273 22.498 10.5273 27.2148C10.5273 32 14.3555 35.0078 19.5508 35.0078C24.7461 35.0078 28.5742 32 28.5742 27.2148C28.5742 22.498 24.7461 19.5586 19.5508 19.5586ZM53.5254 11.2871V42.5273H45.8691V11.2871H53.5254ZM53.5254 45.1934V61.3262H20.0977V66.3164H55.3711V72.332H12.6465V55.7207H45.9375V51.1406H12.5098V45.1934H53.5254ZM110.947 11.2871V35.8965H120.449V42.1855H110.947V73.084H103.428V11.2871H110.947ZM98.6426 20.7891V26.873H62.207V20.7891H76.8359V12.1758H84.4238V20.7891H98.6426ZM80.6641 30.9062C89.5508 30.9062 96.1816 36.9219 96.1816 45.4668C96.1816 54.0117 89.5508 59.959 80.6641 59.959C71.6406 59.959 65.0098 54.0117 65.0781 45.4668C65.0098 36.9219 71.6406 30.9062 80.6641 30.9062ZM80.6641 37.127C75.8105 37.127 72.3242 40.4082 72.3242 45.4668C72.3242 50.5254 75.8105 53.7383 80.6641 53.6699C85.3809 53.7383 88.8672 50.5254 88.9355 45.4668C88.8672 40.4082 85.3809 37.127 80.6641 37.127ZM174.658 11.2871V73.084H167.002V11.2871H174.658ZM156.201 17.8496C156.201 36.2383 149.092 51.8926 127.422 62.1465L123.457 56.0625C139.624 48.3721 147.144 37.9131 148.477 23.8652H126.602V17.8496H156.201ZM232.012 29.6758V35.8965H256.553V42.0488H200.088V35.8965H224.492V29.6758H232.012ZM251.426 12.9961V18.8066H233.721C235.156 23.2158 242.471 26.9414 253.818 27.625L251.426 33.2988C239.976 32.4102 231.533 28.5137 228.32 22.6348C225.073 28.5137 216.597 32.4102 205.215 33.2988L202.754 27.625C213.896 26.9756 221.279 23.1816 222.852 18.8066H205.283V12.9961H251.426ZM251.221 48.9531V54.6953H205.283V48.9531H224.424V43.9629H232.08V48.9531H251.221ZM228.184 56.9512C240.146 56.9512 247.119 59.7539 247.119 65.0859C247.119 70.4863 240.146 73.2891 228.184 73.2891C216.152 73.2891 209.385 70.4863 209.385 65.0859C209.385 59.7539 216.152 56.9512 228.184 56.9512ZM228.184 62.0781C221.006 62.0781 217.178 62.9668 217.178 65.0859C217.178 67.2051 221.006 68.2305 228.184 68.2305C235.498 68.2305 239.189 67.2051 239.258 65.0859C239.189 62.9668 235.498 62.0781 228.184 62.0781ZM316.982 43.2109V49.2949H260.654V43.2109H316.982ZM310.625 65.7012V71.8535H267.627V53.875H275.215V65.7012H310.625ZM288.75 13.2695C302.217 13.2695 310.967 17.9863 311.035 25.7793C310.967 33.6406 302.217 38.4258 288.75 38.4258C275.283 38.4258 266.465 33.6406 266.465 25.7793C266.465 17.9863 275.283 13.2695 288.75 13.2695ZM288.75 19.3535C279.795 19.3535 274.326 21.6777 274.395 25.7793C274.326 29.9492 279.795 32.2734 288.75 32.2051C297.773 32.2734 303.174 29.9492 303.174 25.7793C303.174 21.6777 297.773 19.3535 288.75 19.3535ZM389.375 11.2871V73.084H381.719V11.2871H389.375ZM370.918 17.8496C370.918 36.2383 363.809 51.8926 342.139 62.1465L338.174 56.0625C354.341 48.3721 361.86 37.9131 363.193 23.8652H341.318V17.8496H370.918ZM415.42 14.0215C423.418 13.9531 429.707 18.5674 431.279 25.3691H442.422V11.2871H450.01V44.4414H442.422V31.5215H431.348C429.81 38.46 423.452 43.1426 415.42 43.1426C405.918 43.1426 399.082 37.0586 399.082 28.5137C399.082 20.1055 405.918 13.9531 415.42 14.0215ZM415.42 20.3789C410.088 20.3789 406.328 23.5234 406.328 28.5137C406.328 33.4355 410.088 36.7168 415.42 36.7168C420.615 36.7168 424.307 33.4355 424.375 28.5137C424.307 23.5234 420.615 20.3789 415.42 20.3789ZM416.787 47.3125V53.875H442.422V47.3125H450.01V72.332H409.268V47.3125H416.787ZM416.787 66.1797H442.422V59.7539H416.787V66.1797ZM19.5508 97.2695C28.916 97.2695 35.8887 103.08 35.957 111.215C35.8887 119.418 28.916 125.16 19.5508 125.16C10.1172 125.16 3.14453 119.418 3.14453 111.215C3.14453 103.08 10.1172 97.2695 19.5508 97.2695ZM19.5508 103.559C14.3555 103.559 10.5273 106.498 10.5273 111.215C10.5273 116 14.3555 119.008 19.5508 119.008C24.7461 119.008 28.5742 116 28.5742 111.215C28.5742 106.498 24.7461 103.559 19.5508 103.559ZM53.5254 95.2871V126.527H45.8691V95.2871H53.5254ZM53.5254 129.193V145.326H20.0977V150.316H55.3711V156.332H12.6465V139.721H45.9375V135.141H12.5098V129.193H53.5254ZM114.023 98.4316V104.447H101.24C101.309 111.181 106.436 117.675 116.074 120.443L112.451 126.254C105.41 124.306 100.317 120.102 97.5488 114.701C94.8145 120.785 89.5166 125.536 81.9629 127.758L78.2715 121.811C88.1494 118.905 93.4131 111.83 93.584 104.447H80.459V98.4316H114.023ZM127.9 95.2871V107.934H136.514V114.086H127.9V127.006H120.312V95.2871H127.9ZM127.9 129.604V145.395H95.0879V150.59H129.814V156.469H87.5684V139.994H120.312V135.414H87.5V129.604H127.9ZM188.057 95.2871V119.896H197.559V126.186H188.057V157.084H180.537V95.2871H188.057ZM175.752 104.789V110.873H139.316V104.789H153.945V96.1758H161.533V104.789H175.752ZM157.773 114.906C166.66 114.906 173.291 120.922 173.291 129.467C173.291 138.012 166.66 143.959 157.773 143.959C148.75 143.959 142.119 138.012 142.188 129.467C142.119 120.922 148.75 114.906 157.773 114.906ZM157.773 121.127C152.92 121.127 149.434 124.408 149.434 129.467C149.434 134.525 152.92 137.738 157.773 137.67C162.49 137.738 165.977 134.525 166.045 129.467C165.977 124.408 162.49 121.127 157.773 121.127ZM250.195 112.787V118.803H207.402V97.543H214.922V112.787H250.195ZM256.553 125.98V131.996H200.088V125.98H256.553ZM250.605 149.496V155.648H206.855V137.465H214.443V149.496H250.605ZM328.877 95.2871V157.084H321.221V95.2871H328.877ZM310.42 101.85C310.42 120.238 303.311 135.893 281.641 146.146L277.676 140.062C293.843 132.372 301.362 121.913 302.695 107.865H280.82V101.85H310.42ZM354.922 98.0215C362.92 97.9531 369.209 102.567 370.781 109.369H381.924V95.2871H389.512V128.441H381.924V115.521H370.85C369.312 122.46 362.954 127.143 354.922 127.143C345.42 127.143 338.584 121.059 338.584 112.514C338.584 104.105 345.42 97.9531 354.922 98.0215ZM354.922 104.379C349.59 104.379 345.83 107.523 345.83 112.514C345.83 117.436 349.59 120.717 354.922 120.717C360.117 120.717 363.809 117.436 363.877 112.514C363.809 107.523 360.117 104.379 354.922 104.379ZM356.289 131.312V137.875H381.924V131.312H389.512V156.332H348.77V131.312H356.289ZM356.289 150.18H381.924V143.754H356.289V150.18Z" fill="white"/>
<path d="M10.8164 213.375L12.5352 207.445H14.3613L13.2227 213.375H10.8164ZM23.0195 209.035C23.0195 211.506 24.8672 213.869 27.832 214.814L26.7793 216.404C24.5664 215.674 22.8906 214.148 22.0312 212.215C21.1611 214.31 19.4531 215.964 17.1543 216.77L16.1016 215.201C19.0879 214.17 20.9355 211.656 20.957 209.035V208.498H16.6387V206.844H27.252V208.498H23.0195V209.035ZM31.8496 205.576V217.199H29.8086V205.576H31.8496ZM31.8496 218.166V224.826H29.8086V219.82H18.8086V218.166H31.8496ZM50.9062 205.598V220.186H48.8652V218.338H44.998V216.898H48.8652V205.598H50.9062ZM51.3789 222.764V224.418H37.4785V218.768H39.498V222.764H51.3789ZM34.8145 214.385C38.3809 214.363 43.1719 214.32 47.2754 213.805L47.4043 215.266C45.7607 215.534 44.0312 215.717 42.334 215.824V219.584H40.293V215.932C38.4238 216.018 36.6299 216.028 35.0723 216.018L34.8145 214.385ZM41.1094 206.328C43.9238 206.328 45.8789 207.682 45.8789 209.723C45.8789 211.764 43.9238 213.074 41.1094 213.074C38.252 213.074 36.3184 211.764 36.3184 209.723C36.3184 207.682 38.252 206.328 41.1094 206.328ZM41.1094 207.854C39.3906 207.832 38.2305 208.562 38.252 209.723C38.2305 210.861 39.3906 211.57 41.1094 211.57C42.7637 211.57 43.9238 210.861 43.9453 209.723C43.9238 208.562 42.7637 207.832 41.1094 207.854ZM60.1875 206.951C63.2383 206.93 65.4082 208.82 65.4297 211.527C65.4082 214.234 63.2383 216.125 60.1875 216.125C57.1582 216.125 54.9238 214.234 54.9453 211.527C54.9238 208.82 57.1582 206.93 60.1875 206.951ZM60.1875 208.713C58.3184 208.713 56.9434 209.83 56.9648 211.527C56.9434 213.225 58.3184 214.342 60.1875 214.342C62.0566 214.342 63.4316 213.225 63.4316 211.527C63.4316 209.83 62.0566 208.713 60.1875 208.713ZM69.834 205.576V224.869H67.793V205.576H69.834ZM54.0215 219.025C57.5234 219.025 62.3789 218.982 66.5898 218.381L66.7402 219.863C62.3789 220.701 57.7168 220.723 54.2793 220.723L54.0215 219.025ZM85.1309 208.455C85.1309 211.162 86.8711 213.568 89.793 214.514L88.6758 216.104C86.5596 215.341 85.002 213.858 84.1641 211.936C83.3262 214.138 81.6504 215.846 79.3301 216.684L78.2344 215.051C81.3066 213.998 83.0898 211.441 83.1113 208.541V206.65H85.1309V208.455ZM94.3477 205.576V216.941H92.3066V211.162H88.2461V209.486H92.3066V205.576H94.3477ZM87.9023 217.479C91.9414 217.479 94.4121 218.811 94.4121 221.152C94.4121 223.473 91.9414 224.805 87.9023 224.783C83.8633 224.805 81.3711 223.473 81.3926 221.152C81.3711 218.811 83.8633 217.479 87.9023 217.479ZM87.9023 219.068C85.0879 219.068 83.4121 219.82 83.4121 221.152C83.4121 222.441 85.0879 223.172 87.9023 223.172C90.7168 223.172 92.3926 222.441 92.3926 221.152C92.3926 219.82 90.7168 219.068 87.9023 219.068ZM104.037 209.121C104.037 211.57 105.734 213.805 108.656 214.729L107.689 216.318C105.498 215.62 103.897 214.17 103.049 212.344C102.211 214.449 100.524 216.114 98.2148 216.92L97.1621 215.287C100.17 214.299 101.975 211.807 101.996 209.143V208.605H97.7637V206.951H108.184V208.605H104.037V209.121ZM112.438 205.576V210.346H115.23V212.021H112.438V217.135H110.396V205.576H112.438ZM106.229 217.607C110.203 217.607 112.609 218.918 112.609 221.174C112.609 223.451 110.203 224.805 106.229 224.783C102.211 224.805 99.7617 223.451 99.7617 221.174C99.7617 218.918 102.211 217.607 106.229 217.607ZM106.229 219.219C103.436 219.219 101.781 219.928 101.803 221.174C101.781 222.463 103.436 223.172 106.229 223.172C109 223.172 110.611 222.463 110.611 221.174C110.611 219.928 109 219.219 106.229 219.219ZM132.268 205.576V224.869H130.227V205.576H132.268ZM121.977 207.016C124.834 207.016 126.939 209.637 126.939 213.762C126.939 217.908 124.834 220.529 121.977 220.529C119.076 220.529 116.992 217.908 116.992 213.762C116.992 209.637 119.076 207.016 121.977 207.016ZM121.977 208.842C120.193 208.842 118.969 210.732 118.969 213.762C118.969 216.812 120.193 218.703 121.977 218.703C123.738 218.703 124.963 216.812 124.963 213.762C124.963 210.732 123.738 208.842 121.977 208.842ZM156.072 206.457V208.068C156.051 209.594 156.051 211.184 155.557 213.182L153.516 212.945C154.031 210.979 154.031 209.583 154.031 208.09H142.773V206.457H156.072ZM158.242 214.17V215.824H140.732V214.17H147.758V210.689H149.756V214.17H158.242ZM156.029 217.758V219.391H144.922V222.914H156.287V224.568H142.859V217.758H156.029ZM181.102 205.576V224.826H179.039V205.576H181.102ZM175.365 207.639C175.365 213.268 172.959 218.166 166.363 221.324L165.289 219.67C170.413 217.231 172.905 213.762 173.303 209.271H166.213V207.639H175.365ZM189.438 206.457C191.973 206.436 193.928 207.907 194.357 210.066H198.117V205.576H200.158V215.91H198.117V211.742H194.379C193.96 213.955 191.994 215.438 189.438 215.438C186.494 215.438 184.389 213.59 184.389 210.926C184.389 208.305 186.494 206.436 189.438 206.457ZM189.438 208.154C187.611 208.154 186.344 209.271 186.344 210.926C186.344 212.58 187.611 213.719 189.438 213.719C191.221 213.719 192.488 212.58 192.488 210.926C192.488 209.271 191.221 208.154 189.438 208.154ZM189.631 216.834V219.068H198.117V216.834H200.158V224.59H187.611V216.834H189.631ZM189.631 222.914H198.117V220.68H189.631V222.914ZM209.396 206.951C212.447 206.93 214.617 208.82 214.639 211.527C214.617 214.234 212.447 216.125 209.396 216.125C206.367 216.125 204.133 214.234 204.154 211.527C204.133 208.82 206.367 206.93 209.396 206.951ZM209.396 208.713C207.527 208.713 206.152 209.83 206.174 211.527C206.152 213.225 207.527 214.342 209.396 214.342C211.266 214.342 212.641 213.225 212.641 211.527C212.641 209.83 211.266 208.713 209.396 208.713ZM219.043 205.576V224.869H217.002V205.576H219.043ZM203.23 219.025C206.732 219.025 211.588 218.982 215.799 218.381L215.949 219.863C211.588 220.701 206.926 220.723 203.488 220.723L203.23 219.025ZM234.34 208.455C234.34 211.162 236.08 213.568 239.002 214.514L237.885 216.104C235.769 215.341 234.211 213.858 233.373 211.936C232.535 214.138 230.859 215.846 228.539 216.684L227.443 215.051C230.516 213.998 232.299 211.441 232.32 208.541V206.65H234.34V208.455ZM243.557 205.576V216.941H241.516V211.162H237.455V209.486H241.516V205.576H243.557ZM237.111 217.479C241.15 217.479 243.621 218.811 243.621 221.152C243.621 223.473 241.15 224.805 237.111 224.783C233.072 224.805 230.58 223.473 230.602 221.152C230.58 218.811 233.072 217.479 237.111 217.479ZM237.111 219.068C234.297 219.068 232.621 219.82 232.621 221.152C232.621 222.441 234.297 223.172 237.111 223.172C239.926 223.172 241.602 222.441 241.602 221.152C241.602 219.82 239.926 219.068 237.111 219.068ZM253.246 209.121C253.246 211.57 254.943 213.805 257.865 214.729L256.898 216.318C254.707 215.62 253.106 214.17 252.258 212.344C251.42 214.449 249.733 216.114 247.424 216.92L246.371 215.287C249.379 214.299 251.184 211.807 251.205 209.143V208.605H246.973V206.951H257.393V208.605H253.246V209.121ZM261.646 205.576V210.346H264.439V212.021H261.646V217.135H259.605V205.576H261.646ZM255.438 217.607C259.412 217.607 261.818 218.918 261.818 221.174C261.818 223.451 259.412 224.805 255.438 224.783C251.42 224.805 248.971 223.451 248.971 221.174C248.971 218.918 251.42 217.607 255.438 217.607ZM255.438 219.219C252.645 219.219 250.99 219.928 251.012 221.174C250.99 222.463 252.645 223.172 255.438 223.172C258.209 223.172 259.82 222.463 259.82 221.174C259.82 219.928 258.209 219.219 255.438 219.219ZM269.188 207.467L267.469 213.396H265.643L266.781 207.467H269.188ZM286.654 205.576V224.869H284.613V205.576H286.654ZM276.363 207.016C279.221 207.016 281.326 209.637 281.326 213.762C281.326 217.908 279.221 220.529 276.363 220.529C273.463 220.529 271.379 217.908 271.379 213.762C271.379 209.637 273.463 207.016 276.363 207.016ZM276.363 208.842C274.58 208.842 273.355 210.732 273.355 213.762C273.355 216.812 274.58 218.703 276.363 218.703C278.125 218.703 279.35 216.812 279.35 213.762C279.35 210.732 278.125 208.842 276.363 208.842ZM304.723 205.576V213.096H307.816V214.814H304.723V224.869H302.703V205.576H304.723ZM299.287 207.316V214.385H292.541V218.553C295.85 218.542 298.299 218.424 301.113 217.908L301.307 219.562C298.299 220.121 295.699 220.25 292.09 220.271H290.521V212.73H297.268V208.971H290.479V207.316H299.287ZM324.316 211.205V212.838H311.061V206.264H313.08V211.205H324.316ZM326.336 215.266V216.898H308.719V215.266H326.336ZM324.445 222.699V224.375H310.91V218.725H312.951V222.699H324.445ZM349.131 205.576V224.826H347.068V205.576H349.131ZM343.395 207.639C343.395 213.268 340.988 218.166 334.393 221.324L333.318 219.67C338.442 217.231 340.935 213.762 341.332 209.271H334.242V207.639H343.395ZM357.467 206.457C360.002 206.436 361.957 207.907 362.387 210.066H366.146V205.576H368.188V215.91H366.146V211.742H362.408C361.989 213.955 360.023 215.438 357.467 215.438C354.523 215.438 352.418 213.59 352.418 210.926C352.418 208.305 354.523 206.436 357.467 206.457ZM357.467 208.154C355.641 208.154 354.373 209.271 354.373 210.926C354.373 212.58 355.641 213.719 357.467 213.719C359.25 213.719 360.518 212.58 360.518 210.926C360.518 209.271 359.25 208.154 357.467 208.154ZM357.66 216.834V219.068H366.146V216.834H368.188V224.59H355.641V216.834H357.66ZM357.66 222.914H366.146V220.68H357.66V222.914ZM377.898 209.357C377.898 211.355 379.832 213.16 382.775 213.805L381.852 215.373C379.563 214.836 377.823 213.611 376.932 211.979C376.062 213.762 374.311 215.126 371.947 215.738L371.045 214.148C373.988 213.396 375.879 211.506 375.879 209.357V209.035H371.689V207.402H375.879V205.49H377.92V207.402H382.088V209.035H377.898V209.357ZM387.18 205.576V215.652H385.16V211.914H381.529V210.281H385.16V205.576H387.18ZM387.18 216.49V221.238H376.674V223.043H387.867V224.633H374.633V219.734H385.16V218.08H374.59V216.49H387.18ZM401.66 207.531V209.164H390.188V207.531H394.914V205.49H396.955V207.531H401.66ZM395.924 210.023C398.695 210.045 400.586 211.42 400.586 213.525C400.586 215.631 398.695 217.027 395.924 217.027C393.131 217.027 391.24 215.631 391.24 213.525C391.24 211.42 393.131 210.045 395.924 210.023ZM395.924 211.592C394.291 211.592 393.195 212.344 393.217 213.525C393.195 214.729 394.291 215.438 395.924 215.438C397.557 215.438 398.652 214.729 398.674 213.525C398.652 212.344 397.557 211.592 395.924 211.592ZM405.291 205.576V210.797H408.084V212.494H405.291V217.607H403.25V205.576H405.291ZM405.291 218.596V224.826H403.25V220.25H392.572V218.596H405.291ZM417.945 206.736C421.984 206.736 425.057 208.863 425.057 212.107C425.057 215.352 421.984 217.5 417.945 217.479C413.906 217.5 410.855 215.352 410.855 212.107C410.855 208.863 413.906 206.736 417.945 206.736ZM417.945 208.391C415.002 208.369 412.789 209.873 412.811 212.107C412.789 214.363 415.002 215.803 417.945 215.803C420.889 215.803 423.08 214.363 423.08 212.107C423.08 209.873 420.889 208.369 417.945 208.391ZM426.797 220.637V222.334H409.18V220.637H426.797ZM445.811 220.809V222.527H428.193V220.809H435.949V217.436H430.342V211.312H441.643V208.605H430.299V206.93H443.662V212.945H432.361V215.76H444.113V217.436H437.969V220.809H445.811ZM26.0918 241.393V242.66C26.0918 243.938 26.0918 245.55 25.6836 247.645H28.3262V249.277H10.709V247.645H23.6426C24.0293 245.689 24.0723 244.218 24.0723 243.025H12.9219V241.393H26.0918ZM26.1133 250.996V256.045H14.834V258H26.6074V259.633H12.793V254.477H24.0938V252.629H12.7715V250.996H26.1133ZM47.3398 255.809V257.527H29.7227V255.809H37.4785V252.436H31.8711V246.312H43.1719V243.605H31.8281V241.93H45.1914V247.945H33.8906V250.76H45.6426V252.436H39.498V255.809H47.3398ZM64.7637 240.576V250.545H62.7441V246.398H58.5332V249.836H49.6602V241.457H51.7012V244.014H56.5137V241.457H58.5332V244.723H62.7441V240.576H64.7637ZM64.7637 251.404V256.152H54.2578V257.957H65.4512V259.59H52.2168V254.648H62.7441V253.037H52.1738V251.404H64.7637ZM51.7012 248.225H56.5137V245.625H51.7012V248.225ZM89.084 240.598V254.584H87.043V240.598H89.084ZM89.6641 257.764V259.418H76.4941V253.166H78.5566V257.764H89.6641ZM78.6426 241.887C81.543 241.887 83.7559 243.863 83.7559 246.656C83.7559 249.492 81.543 251.447 78.6426 251.447C75.7422 251.447 73.5078 249.492 73.5078 246.656C73.5078 243.863 75.7422 241.887 78.6426 241.887ZM78.6426 243.67C76.8379 243.67 75.5059 244.895 75.5059 246.656C75.5059 248.461 76.8379 249.664 78.6426 249.664C80.4043 249.664 81.7578 248.461 81.7578 246.656C81.7578 244.895 80.4043 243.67 78.6426 243.67ZM108.764 240.576V259.826H106.809V249.943H104.51V258.881H102.576V240.941H104.51V248.225H106.809V240.576H108.764ZM97.9785 245.668C97.9785 249.127 99.2891 252.264 102.082 253.703L100.879 255.271C98.9883 254.251 97.7207 252.457 97.0332 250.223C96.3779 252.758 95.0996 254.777 93.1445 255.938L91.877 254.391C94.6914 252.801 96.002 249.492 96.002 245.668V244.422H92.3926V242.768H101.33V244.422H97.9785V245.668ZM128.744 249.406V250.975H111.127V249.406H128.744ZM126.574 252.328V256.561H115.273V258.15H127.176V259.59H113.232V255.207H124.555V253.789H113.211V252.328H126.574ZM126.531 241.07V245.238H115.402V246.699H126.854V248.139H113.383V243.885H124.49V242.51H113.34V241.07H126.531ZM153.387 243.305V244.98H150.658V247.43H153.387V249.127H150.658V251.941H148.617V240.576H150.658V243.305H153.387ZM140.947 241.693C143.891 241.693 146.061 243.562 146.082 246.27C146.061 248.955 143.891 250.824 140.947 250.846C138.004 250.824 135.812 248.955 135.834 246.27C135.812 243.562 138.004 241.693 140.947 241.693ZM140.947 243.412C139.143 243.412 137.811 244.572 137.832 246.27C137.811 247.988 139.143 249.105 140.947 249.127C142.752 249.105 144.084 247.988 144.084 246.27C144.084 244.572 142.752 243.412 140.947 243.412ZM144.449 252.457C148.381 252.457 150.83 253.811 150.83 256.131C150.83 258.43 148.381 259.805 144.449 259.783C140.475 259.805 137.982 258.43 137.982 256.131C137.982 253.811 140.475 252.457 144.449 252.457ZM144.449 254.111C141.656 254.111 140.002 254.842 140.023 256.131C140.002 257.441 141.656 258.15 144.449 258.15C147.221 258.15 148.832 257.441 148.832 256.131C148.832 254.842 147.221 254.111 144.449 254.111ZM161.379 243.455C161.379 246.162 163.119 248.568 166.041 249.514L164.924 251.104C162.808 250.341 161.25 248.858 160.412 246.936C159.574 249.138 157.898 250.846 155.578 251.684L154.482 250.051C157.555 248.998 159.338 246.441 159.359 243.541V241.65H161.379V243.455ZM170.596 240.576V251.941H168.555V246.162H164.494V244.486H168.555V240.576H170.596ZM164.15 252.479C168.189 252.479 170.66 253.811 170.66 256.152C170.66 258.473 168.189 259.805 164.15 259.783C160.111 259.805 157.619 258.473 157.641 256.152C157.619 253.811 160.111 252.479 164.15 252.479ZM164.15 254.068C161.336 254.068 159.66 254.82 159.66 256.152C159.66 257.441 161.336 258.172 164.15 258.172C166.965 258.172 168.641 257.441 168.641 256.152C168.641 254.82 166.965 254.068 164.15 254.068ZM188.557 240.576V248.375H191.65V250.072H188.557V259.826H186.537V240.576H188.557ZM184.861 243.584V245.26H173.453V243.584H178.201V240.834H180.242V243.584H184.861ZM179.232 246.678C181.982 246.678 184.002 248.525 184.023 251.146C184.002 253.789 181.982 255.615 179.232 255.637C176.461 255.615 174.441 253.789 174.441 251.146C174.441 248.525 176.461 246.678 179.232 246.678ZM179.232 248.354C177.6 248.354 176.375 249.492 176.396 251.146C176.375 252.822 177.6 253.939 179.232 253.918C180.865 253.939 182.068 252.822 182.068 251.146C182.068 249.492 180.865 248.354 179.232 248.354ZM208.15 242.424V244.314C208.15 246.699 208.15 249.363 207.42 253.295L205.357 253.08C206.109 249.363 206.109 246.635 206.109 244.314V244.078H194.422V242.424H208.15ZM210.127 255.529V257.227H192.574V255.529H199.256V248.74H201.275V255.529H210.127ZM223.641 253.295C223.641 254.949 224.457 256.7 226.197 257.742C227.97 256.614 228.84 254.767 228.84 253.295V252.371H230.838V253.295C230.838 255.293 232.148 257.227 234.662 258.043L233.652 259.547C231.751 258.892 230.462 257.613 229.785 256.023C229.173 257.581 228.023 258.988 226.262 259.719C224.414 259.021 223.243 257.656 222.652 256.088C221.954 257.603 220.687 258.881 218.871 259.547L217.84 258.043C220.311 257.162 221.643 255.164 221.664 253.295V252.371H223.641V253.295ZM232.922 240.598V251.555H230.881V240.598H232.922ZM222.48 241.65C225.424 241.65 227.594 243.52 227.594 246.205C227.594 248.869 225.424 250.717 222.48 250.717C219.537 250.717 217.346 248.869 217.346 246.205C217.346 243.52 219.537 241.65 222.48 241.65ZM222.48 243.391C220.654 243.369 219.344 244.508 219.344 246.205C219.344 247.881 220.654 249.02 222.48 249.02C224.285 249.02 225.596 247.881 225.596 246.205C225.596 244.508 224.285 243.369 222.48 243.391ZM240.162 252.113V254.154H249.207V252.113H251.248V259.59H238.143V252.113H240.162ZM240.162 257.957H249.207V255.744H240.162V257.957ZM253.525 249.213V250.91H235.973V249.213H253.525ZM245.791 241.607C245.791 243.82 248.863 245.969 252.559 246.42L251.828 248.031C248.702 247.591 245.984 246.119 244.76 244.078C243.503 246.13 240.774 247.591 237.691 248.031L236.918 246.42C240.656 245.947 243.707 243.885 243.707 241.607V240.791H245.791V241.607ZM270.971 240.576V259.826H268.93V240.576H270.971ZM258.188 242.445V253.166C260.991 253.145 263.945 252.919 267.039 252.285L267.318 254.004C263.902 254.691 260.809 254.928 257.779 254.928H256.168V242.445H258.188ZM288.996 240.576V248.031H292.09V249.707H288.996V259.869H286.955V240.576H288.996ZM283.818 242.424V244.078H276.857V253.381C280.091 253.37 282.519 253.23 285.258 252.736L285.516 254.455C282.508 254.992 279.951 255.1 276.363 255.078H274.816V242.424H283.818ZM295.205 258.15C294.367 258.15 293.658 257.463 293.68 256.625C293.658 255.787 294.367 255.1 295.205 255.1C296.021 255.1 296.73 255.787 296.73 256.625C296.73 257.463 296.021 258.15 295.205 258.15Z" fill="white"/>
<g clip-path="url(#clip0_14_10)">
<path d="M134.523 308.083H121.333V305.917H134.523L128.456 299.85L130 298.333L138.667 307L130 315.667L128.456 314.15L134.523 308.083Z" fill="white"/>
</g>
<path d="M20.4844 298.359V300.057H13.7168V309.445C16.9395 309.435 19.1631 309.316 21.6875 308.822L21.9238 310.498C19.1523 311.014 16.8105 311.143 13.1797 311.143H11.6543V298.359H20.4844ZM26.7793 296.576V315.869H24.7383V305.148H19.3887V303.451H24.7383V296.576H26.7793ZM50.2188 296.576V300.594H53.0117V302.291H50.2188V306.309H48.1777V296.576H50.2188ZM50.2188 307.189V312.066H39.8203V313.957H50.8848V315.59H37.8223V310.541H48.1992V308.779H37.7793V307.189H50.2188ZM40.4434 297.242C43.3652 297.242 45.4922 299.004 45.4922 301.539C45.4922 304.074 43.3652 305.836 40.4434 305.836C37.5215 305.836 35.373 304.074 35.3945 301.539C35.373 299.004 37.5215 297.242 40.4434 297.242ZM40.4434 298.918C38.6602 298.918 37.3711 299.971 37.3711 301.539C37.3711 303.107 38.6602 304.203 40.4434 304.203C42.2051 304.203 43.5156 303.107 43.5156 301.539C43.5156 299.971 42.2051 298.918 40.4434 298.918ZM59.2637 298.016C62.1426 298.016 64.1836 300.637 64.2051 304.762C64.1836 308.908 62.1426 311.529 59.2637 311.529C56.3848 311.529 54.3223 308.908 54.3438 304.762C54.3223 300.637 56.3848 298.016 59.2637 298.016ZM59.2637 299.842C57.502 299.842 56.2988 301.732 56.2988 304.762C56.2988 307.812 57.502 309.703 59.2637 309.703C61.0469 309.703 62.25 307.812 62.25 304.762C62.25 301.732 61.0469 299.842 59.2637 299.842ZM69.1035 296.576V304.117H72.1973V305.836H69.1035V315.826H67.0625V296.576H69.1035ZM90.7383 311.744V313.441H73.1211V311.744H80.877V307.791H75.1406V297.887H77.1816V301.195H86.6348V297.887H88.6543V307.791H82.8965V311.744H90.7383ZM77.1816 306.137H86.6348V302.85H77.1816V306.137ZM108.141 296.576V315.826H106.078V296.576H108.141ZM102.404 298.639C102.404 304.268 99.998 309.166 93.4023 312.324L92.3281 310.67C97.4521 308.231 99.9443 304.762 100.342 300.271H93.252V298.639H102.404Z" fill="white"/>
<defs>
<clipPath id="clip0_14_10">
<rect width="26" height="26" fill="white" transform="translate(116 293)"/>
</clipPath>
</defs>
</svg>
