<svg xmlns="http://www.w3.org/2000/svg" width="182" height="50" viewBox="0 0 182 50" fill="none">
  <path d="M114.847 13.984V31.1044H119.158V13.984H114.847Z" fill="#253185"/>
  <path d="M62.3872 28.2511H45.8592V13.984H41.548V31.1044H62.3872V28.2511Z" fill="#253185"/>
  <path d="M65.2616 31.1044V13.984H86.1024V16.8381H69.5736V21.1176H80.3536V23.9708H69.5736V28.2511H86.1024V31.1044H65.2616Z" fill="#253185"/>
  <path d="M111.973 13.984H106.942L100.475 20.1472L94.0072 13.984H88.9768L97.9592 22.5446L88.9768 31.1044H94.0072L100.475 24.9412L106.942 31.1044H111.973L102.99 22.5446L111.973 13.984Z" fill="#253185"/>
  <path d="M170.181 13.984V27.1537L155.809 13.984H151.497V31.1044H155.809V17.9355L170.181 31.1044H174.493V13.984H170.181Z" fill="#253185"/>
  <path d="M141.796 28.2511C142.39 28.2511 142.874 27.7723 142.874 27.1814V17.9077C142.874 17.3169 142.39 16.8381 141.796 16.8381H129.579C128.984 16.8381 128.502 17.3169 128.502 17.9077V27.1807C128.502 27.7715 128.984 28.2503 129.579 28.2503H141.796V28.2511ZM124.189 15.411C124.189 14.6233 124.833 13.9848 125.626 13.9848H145.747C146.542 13.9848 147.185 14.6233 147.185 15.411V29.6782C147.185 30.4659 146.541 31.1044 145.747 31.1044H125.626C124.832 31.1044 124.189 30.4659 124.189 29.6782V15.411Z" fill="#253185"/>
  <path d="M13.244 19.947L19.2704 11.1307L22.3528 15.6397C18.7488 17.2367 15.6712 18.7209 13.244 19.947ZM110.648 2.79727C110.648 2.79727 104.075 0.430801 86.1024 0.430801C63.2104 0.430801 40.7544 7.83436 25.6624 14.2087L19.2704 5.42342L0.586426 31.1044H5.61683L7.92643 27.7254C10.096 26.435 16.1744 22.9147 24.5512 18.8559L32.9232 31.1044H37.9536L27.8888 17.2701C43.7208 9.88795 66.108 1.50048 86.1024 1.50048C104.038 1.50048 110.289 3.4143 110.289 3.4143C110.46 3.51277 110.68 3.4548 110.78 3.28407C110.878 3.11412 110.82 2.89574 110.648 2.79727Z" fill="#253185"/>
  <path d="M117.002 11.8447C116.804 11.8447 116.644 11.6842 116.642 11.4873C116.639 11.0251 117.225 10.0865 115.757 7.56437L115.756 7.56278C114.29 5.03987 113.178 5.07401 112.776 4.83975C112.605 4.74048 112.546 4.5229 112.644 4.35216H112.645H112.646C112.745 4.18142 112.964 4.12425 113.137 4.22192C113.542 4.45063 114.068 5.42263 117.002 5.42263H117.003C119.938 5.42263 120.463 4.45063 120.868 4.22192C121.041 4.12425 121.261 4.18142 121.359 4.35216H121.358L121.358 4.35295C121.457 4.52369 121.397 4.74048 121.226 4.84054C120.823 5.07401 119.712 5.04066 118.245 7.56278L118.244 7.56437C116.778 10.0865 117.362 11.0251 117.358 11.4873C117.357 11.6842 117.197 11.8439 116.999 11.8439L117.002 11.8447Z" fill="#D21E2D"/>
  <path d="M178.924 14.4486H178.38V15.1506H178.967C179.185 15.1506 179.38 15.0537 179.38 14.8051C179.381 14.5351 179.153 14.4486 178.924 14.4486ZM179.381 16.661L178.968 15.5818H178.381V16.661H177.892V13.984H178.794C179.414 13.984 179.892 14.1246 179.892 14.8472C179.892 15.2355 179.74 15.3547 179.425 15.5055L179.925 16.6602H179.381V16.661ZM178.858 13.2296C177.674 13.2296 176.685 14.2111 176.685 15.388C176.685 16.5649 177.674 17.5472 178.858 17.5472C180.044 17.5472 181.034 16.5649 181.034 15.388C181.034 14.2111 180.044 13.2296 178.858 13.2296ZM178.858 17.9236C177.456 17.9236 176.304 16.7904 176.304 15.3872C176.304 13.9951 177.456 12.8508 178.858 12.8508C180.262 12.8508 181.414 13.9951 181.414 15.3872C181.414 16.7904 180.272 17.9236 178.858 17.9236Z" fill="#253185"/>
  <path d="M6.3344 38.7724L10.52 49.4056H8.9448L7.7744 46.2037H3.2448L2.044 49.4056H0.5896L4.76 38.7724H6.3344ZM7.3256 45.0126L5.5408 40.0533H5.5096L3.6944 45.0126H7.3256Z" fill="#8C8F8F"/>
  <path d="M12.0951 47.6856C12.2151 47.8793 12.3727 48.0334 12.5679 48.1477C12.7631 48.2621 12.9831 48.3439 13.2279 48.3931C13.4735 48.4431 13.7255 48.4678 13.9855 48.4678C14.1855 48.4678 14.3951 48.4527 14.6151 48.4233C14.8351 48.3939 15.0375 48.3391 15.2231 48.2597C15.4087 48.1803 15.5607 48.0636 15.6807 47.9095C15.7999 47.7562 15.8607 47.5601 15.8607 47.3211C15.8607 46.9931 15.7359 46.7453 15.4855 46.5762C15.2359 46.4078 14.9231 46.2712 14.5479 46.1664C14.1727 46.0616 13.7647 45.9679 13.3255 45.8837C12.8847 45.7995 12.4775 45.6804 12.1031 45.5264C11.7279 45.3731 11.4151 45.1571 11.1655 44.8791C10.9151 44.6012 10.7903 44.2145 10.7903 43.7174C10.7903 43.3306 10.8767 42.9979 11.0527 42.7199C11.2271 42.442 11.4519 42.2165 11.7279 42.0418C12.0031 41.8686 12.3127 41.7392 12.6575 41.655C13.0031 41.5709 13.3447 41.528 13.6855 41.528C14.1255 41.528 14.5303 41.5653 14.9007 41.6399C15.2711 41.7146 15.5983 41.844 15.8839 42.0275C16.1687 42.2109 16.3967 42.4595 16.5671 42.7724C16.7367 43.0852 16.8367 43.4751 16.8671 43.9413H15.5911C15.5719 43.6935 15.5071 43.4871 15.3967 43.3235C15.2863 43.1599 15.1471 43.0281 14.9767 42.9288C14.8063 42.8295 14.6191 42.7573 14.4143 42.7128C14.2087 42.6675 14.0015 42.6461 13.7919 42.6461C13.6023 42.6461 13.4087 42.6612 13.2143 42.6906C13.0191 42.7207 12.8415 42.7724 12.6815 42.847C12.5215 42.9216 12.3919 43.0209 12.2919 43.1448C12.1919 43.2695 12.1415 43.4307 12.1415 43.6292C12.1415 43.8476 12.2191 44.0286 12.3735 44.1724C12.5287 44.3169 12.7263 44.436 12.9663 44.5297C13.2063 44.6242 13.4767 44.7036 13.7767 44.768C14.0767 44.8323 14.3767 44.8998 14.6767 44.9689C14.9967 45.0388 15.3095 45.1229 15.6143 45.2222C15.9199 45.3215 16.1895 45.4533 16.4247 45.6169C16.6599 45.7805 16.8495 45.9869 16.9951 46.2347C17.1399 46.4825 17.2119 46.7906 17.2119 47.1583C17.2119 47.6252 17.1151 48.0119 16.9199 48.3193C16.7247 48.6274 16.4703 48.8759 16.1551 49.0641C15.8391 49.2531 15.4847 49.3842 15.0895 49.4588C14.6943 49.5335 14.3023 49.5708 13.9119 49.5708C13.4815 49.5708 13.0711 49.5263 12.6815 49.4366C12.2919 49.3477 11.9463 49.2007 11.6463 48.9974C11.3463 48.7941 11.1063 48.5257 10.9263 48.193C10.7463 47.8603 10.6463 47.4561 10.6263 46.9796H11.9023C11.9103 47.2559 11.9759 47.4918 12.0951 47.6856Z" fill="#8C8F8F"/>
  <path d="M21.6072 41.7066V42.824H20.0616V47.6046C20.0616 47.7539 20.0744 47.8722 20.0992 47.9619C20.124 48.0509 20.172 48.1207 20.2416 48.17C20.312 48.22 20.4096 48.2526 20.5344 48.2669C20.6592 48.2811 20.8216 48.2891 21.0216 48.2891H21.6064V49.4056H20.632C20.3016 49.4056 20.0184 49.3834 19.784 49.3389C19.5488 49.2937 19.3584 49.2119 19.2136 49.0919C19.068 48.9736 18.9616 48.8053 18.8912 48.5861C18.8208 48.3677 18.7864 48.0794 18.7864 47.7221V42.8232H17.4664V41.7059H18.7864V39.3974H20.0616V41.7059L21.6072 41.7066Z" fill="#8C8F8F"/>
  <path d="M24.0976 41.7066V43.3298H24.1272C24.4376 42.7041 24.8168 42.2427 25.2672 41.9449C25.7176 41.6471 26.2872 41.5081 26.9784 41.528V42.8676C26.468 42.8676 26.0328 42.9367 25.6728 43.0765C25.3128 43.2155 25.0232 43.4188 24.8024 43.6872C24.5824 43.9556 24.4216 44.2804 24.3224 44.6631C24.2224 45.0451 24.172 45.4851 24.172 45.9814V49.4064H22.896V41.7074H24.0976V41.7066Z" fill="#8C8F8F"/>
  <path d="M34.8297 49.3762C34.6097 49.5049 34.3049 49.5692 33.9137 49.5692C33.5841 49.5692 33.3217 49.4779 33.1265 49.2936C32.9321 49.1102 32.8345 48.81 32.8345 48.3923C32.4841 48.8092 32.0769 49.1094 31.6121 49.2936C31.1473 49.4779 30.6441 49.5692 30.1041 49.5692C29.7537 49.5692 29.4209 49.5295 29.1065 49.4509C28.7921 49.3723 28.5193 49.2476 28.2889 49.0784C28.0593 48.9093 27.8761 48.6885 27.7417 48.4154C27.6065 48.1422 27.5385 47.8126 27.5385 47.4251C27.5385 46.9883 27.6137 46.631 27.7633 46.353C27.9129 46.0751 28.1113 45.8496 28.3561 45.6749C28.6009 45.5017 28.8809 45.3699 29.1961 45.2802C29.5113 45.1904 29.8337 45.1158 30.1641 45.057C30.5145 44.9879 30.8473 44.9355 31.1617 44.9006C31.4769 44.8664 31.7537 44.8164 31.9945 44.7513C32.2345 44.687 32.4241 44.5925 32.5641 44.4686C32.7041 44.3447 32.7745 44.1629 32.7745 43.9246C32.7745 43.6467 32.7225 43.4235 32.6169 43.2544C32.5121 43.086 32.3769 42.9566 32.2121 42.8676C32.0473 42.7779 31.8617 42.7184 31.6569 42.689C31.4521 42.6588 31.2497 42.6445 31.0497 42.6445C30.5089 42.6445 30.0593 42.7461 29.6993 42.9494C29.3393 43.1527 29.1441 43.5379 29.1145 44.1041H27.8385C27.8585 43.6276 27.9585 43.2258 28.1385 42.8978C28.3193 42.5699 28.5585 42.3046 28.8585 42.1013C29.1585 41.898 29.5017 41.7519 29.8865 41.6622C30.2705 41.5732 30.6833 41.528 31.1241 41.528C31.4745 41.528 31.8217 41.5534 32.1665 41.6026C32.5121 41.6519 32.8241 41.7535 33.1049 41.9076C33.3849 42.0608 33.6097 42.2768 33.7801 42.554C33.9497 42.8311 34.0345 43.1932 34.0345 43.6387V47.5919C34.0345 47.8896 34.0513 48.1072 34.0865 48.2462C34.1217 48.3844 34.2385 48.4543 34.4393 48.4543C34.5489 48.4543 34.6793 48.4344 34.8289 48.3947L34.8297 49.3762ZM32.7593 45.4295C32.5993 45.5478 32.3889 45.6344 32.1289 45.6891C31.8689 45.7431 31.5969 45.7884 31.3121 45.8226C31.0273 45.8567 30.7393 45.8964 30.4497 45.9409C30.1593 45.9854 29.8993 46.0568 29.6689 46.1561C29.4385 46.2546 29.2513 46.3951 29.1065 46.5786C28.9609 46.7612 28.8897 47.0106 28.8897 47.3266C28.8897 47.5339 28.9321 47.7094 29.0169 47.8523C29.1009 47.9961 29.2113 48.112 29.3465 48.2009C29.4817 48.2899 29.6393 48.3542 29.8193 48.3939C30.0001 48.4336 30.1897 48.4527 30.3897 48.4527C30.8097 48.4527 31.1697 48.3963 31.4697 48.2827C31.7697 48.1692 32.0153 48.0254 32.2049 47.8523C32.3945 47.68 32.5353 47.4918 32.6249 47.2893C32.7145 47.0868 32.7601 46.8962 32.7601 46.7191L32.7593 45.4295Z" fill="#8C8F8F"/>
  <path d="M42.316 39.9644H36.1648V38.7732H43.996V39.9644L37.3496 48.2144H44.176V49.4056H35.6544V48.2144L42.316 39.9644Z" fill="#8C8F8F"/>
  <path d="M50.772 48.9141C50.192 49.3516 49.4616 49.5692 48.5824 49.5692C47.9624 49.5692 47.4248 49.4699 46.9688 49.2714C46.5144 49.0729 46.1312 48.7949 45.8208 48.4376C45.5104 48.0802 45.2784 47.653 45.1232 47.1567C44.9688 46.6604 44.8808 46.1196 44.8608 45.5335C44.8608 44.9474 44.9512 44.4114 45.1312 43.9254C45.3112 43.4394 45.564 43.0169 45.8888 42.6596C46.2136 42.3022 46.5992 42.0243 47.0432 41.8258C47.4888 41.6272 47.976 41.528 48.5064 41.528C49.196 41.528 49.7688 41.6693 50.2232 41.9528C50.6784 42.2355 51.0432 42.5961 51.3184 43.032C51.5936 43.4688 51.7832 43.9453 51.8888 44.4614C51.9936 44.9776 52.0368 45.4692 52.016 45.9353H46.2104C46.2 46.2728 46.24 46.5936 46.3296 46.8962C46.4192 47.1988 46.5648 47.4672 46.7648 47.7006C46.9648 47.9333 47.2192 48.1199 47.5296 48.2589C47.84 48.3979 48.2056 48.467 48.6248 48.467C49.1656 48.467 49.608 48.3431 49.9528 48.0945C50.2976 47.8468 50.5248 47.4688 50.6352 46.9629H51.8952C51.7272 47.8269 51.3528 48.4773 50.772 48.9141ZM50.4648 43.9699C50.3488 43.7023 50.1944 43.4712 49.9992 43.2774C49.8048 43.0836 49.5744 42.9296 49.3096 42.816C49.0448 42.7017 48.752 42.6445 48.432 42.6445C48.1016 42.6445 47.804 42.7017 47.5392 42.816C47.2744 42.9304 47.0464 43.086 46.856 43.2846C46.6664 43.4831 46.516 43.7142 46.4064 43.977C46.296 44.2407 46.2312 44.521 46.212 44.8188H50.6672C50.6472 44.521 50.58 44.2383 50.4648 43.9699Z" fill="#8C8F8F"/>
  <path d="M54.3129 41.7066V42.928H54.3433C54.8729 41.9949 55.7129 41.528 56.8633 41.528C57.3737 41.528 57.7985 41.5979 58.1385 41.7368C58.4785 41.8758 58.7537 42.0696 58.9633 42.3173C59.1729 42.5651 59.3209 42.8613 59.4065 43.2036C59.4905 43.5458 59.5337 43.9262 59.5337 44.3431V49.4064H58.2585V44.1946C58.2585 43.7181 58.1177 43.3409 57.8385 43.063C57.5577 42.7851 57.1729 42.6461 56.6833 42.6461C56.2937 42.6461 55.9561 42.7056 55.6705 42.8248C55.3857 42.9439 55.1481 43.113 54.9577 43.3314C54.7673 43.5498 54.6249 43.8055 54.5305 44.0977C54.4353 44.3908 54.3873 44.7108 54.3873 45.0586V49.4072H53.1121V41.7082H54.3129V41.7066Z" fill="#8C8F8F"/>
  <path d="M66.2991 48.9141C65.7191 49.3516 64.9887 49.5692 64.1095 49.5692C63.4895 49.5692 62.9519 49.4699 62.4959 49.2714C62.0415 49.0729 61.6583 48.7949 61.3479 48.4376C61.0375 48.0802 60.8055 47.653 60.6503 47.1567C60.4959 46.6604 60.4079 46.1196 60.3879 45.5335C60.3879 44.9474 60.4783 44.4114 60.6583 43.9254C60.8383 43.4394 61.0911 43.0169 61.4159 42.6596C61.7407 42.3022 62.1263 42.0243 62.5703 41.8258C63.0159 41.6272 63.5031 41.528 64.0335 41.528C64.7231 41.528 65.2959 41.6693 65.7503 41.9528C66.2055 42.2355 66.5703 42.5961 66.8455 43.032C67.1207 43.4688 67.3103 43.9453 67.4159 44.4614C67.5207 44.9776 67.5639 45.4692 67.5431 45.9353H61.7375C61.7271 46.2728 61.7671 46.5936 61.8567 46.8962C61.9463 47.1988 62.0919 47.4672 62.2919 47.7006C62.4919 47.9333 62.7463 48.1199 63.0567 48.2589C63.3671 48.3979 63.7327 48.467 64.1519 48.467C64.6927 48.467 65.1351 48.3431 65.4799 48.0945C65.8247 47.8468 66.0519 47.4688 66.1623 46.9629H67.4223C67.2551 47.8269 66.8799 48.4773 66.2991 48.9141ZM65.9919 43.9699C65.8759 43.7023 65.7215 43.4712 65.5263 43.2774C65.3319 43.0836 65.1015 42.9296 64.8367 42.816C64.5719 42.7017 64.2791 42.6445 63.9591 42.6445C63.6287 42.6445 63.3311 42.7017 63.0663 42.816C62.8015 42.9304 62.5735 43.086 62.3831 43.2846C62.1935 43.4831 62.0431 43.7142 61.9335 43.977C61.8231 44.2407 61.7583 44.521 61.7391 44.8188H66.1943C66.1743 44.521 66.1071 44.2383 65.9919 43.9699Z" fill="#8C8F8F"/>
  <path d="M73.3056 43.0471C72.9856 42.7787 72.5552 42.6453 72.0152 42.6453C71.5552 42.6453 71.1696 42.7295 70.8608 42.8986C70.5504 43.067 70.3032 43.2909 70.1176 43.5689C69.932 43.8468 69.8 44.1668 69.72 44.5289C69.64 44.8919 69.6008 45.2659 69.6008 45.6534C69.6008 46.0108 69.6432 46.3586 69.728 46.6953C69.812 47.0328 69.9448 47.3338 70.1256 47.5966C70.3056 47.8595 70.5408 48.0707 70.8304 48.2295C71.12 48.3884 71.4656 48.4678 71.8656 48.4678C72.496 48.4678 72.988 48.3042 73.344 47.9762C73.6984 47.6482 73.916 47.1869 73.996 46.5913H75.3016C75.1608 47.5442 74.804 48.2788 74.2288 48.7949C73.6528 49.3111 72.8712 49.5692 71.88 49.5692C71.2904 49.5692 70.7672 49.4747 70.3128 49.2865C69.8576 49.0991 69.4776 48.8307 69.172 48.4829C68.8672 48.135 68.6368 47.7213 68.4824 47.2393C68.3272 46.758 68.2496 46.2291 68.2496 45.6534C68.2496 45.0777 68.3248 44.5393 68.4744 44.0374C68.624 43.5355 68.852 43.0987 69.1576 42.7271C69.4624 42.3546 69.8448 42.0624 70.3056 41.8488C70.7656 41.6352 71.3008 41.5288 71.9112 41.5288C72.3512 41.5288 72.7632 41.5812 73.1488 41.6852C73.5344 41.7892 73.8736 41.9504 74.1688 42.1688C74.4632 42.3872 74.7064 42.6628 74.896 42.9955C75.0856 43.3282 75.2064 43.7229 75.256 44.1795H73.936C73.8352 43.6919 73.6256 43.3147 73.3056 43.0471Z" fill="#8C8F8F"/>
  <path d="M83.3112 49.3762C83.0912 49.5049 82.7864 49.5692 82.3952 49.5692C82.0656 49.5692 81.8032 49.4779 81.608 49.2936C81.4136 49.1102 81.316 48.81 81.316 48.3923C80.9656 48.8092 80.5584 49.1094 80.0936 49.2936C79.6288 49.4779 79.1256 49.5692 78.5856 49.5692C78.2352 49.5692 77.9024 49.5295 77.588 49.4509C77.2736 49.3723 77.0008 49.2476 76.7704 49.0784C76.5408 48.9093 76.3576 48.6885 76.2232 48.4154C76.088 48.1422 76.02 47.8126 76.02 47.4251C76.02 46.9883 76.0952 46.631 76.2448 46.353C76.3944 46.0751 76.5928 45.8496 76.8376 45.6749C77.0824 45.5017 77.3624 45.3699 77.6776 45.2802C77.9928 45.1904 78.3152 45.1158 78.6456 45.057C78.996 44.9879 79.3288 44.9355 79.6432 44.9006C79.9584 44.8664 80.2352 44.8164 80.476 44.7513C80.716 44.687 80.9056 44.5925 81.0456 44.4686C81.1856 44.3447 81.256 44.1629 81.256 43.9246C81.256 43.6467 81.204 43.4235 81.0984 43.2544C80.9936 43.086 80.8584 42.9566 80.6936 42.8676C80.5288 42.7779 80.3432 42.7184 80.1384 42.689C79.9336 42.6588 79.7312 42.6445 79.5312 42.6445C78.9904 42.6445 78.5408 42.7461 78.1808 42.9494C77.8208 43.1527 77.6256 43.5379 77.596 44.1041H76.32C76.34 43.6276 76.44 43.2258 76.62 42.8978C76.8008 42.5699 77.04 42.3046 77.34 42.1013C77.64 41.898 77.9832 41.7519 78.368 41.6622C78.752 41.5732 79.1648 41.528 79.6056 41.528C79.956 41.528 80.3032 41.5534 80.648 41.6026C80.9936 41.6519 81.3056 41.7535 81.5864 41.9076C81.8664 42.0608 82.0912 42.2768 82.2616 42.554C82.4312 42.8311 82.516 43.1932 82.516 43.6387V47.5919C82.516 47.8896 82.5328 48.1072 82.568 48.2462C82.6032 48.3844 82.72 48.4543 82.9208 48.4543C83.0304 48.4543 83.1608 48.4344 83.3104 48.3947L83.3112 49.3762ZM81.2408 45.4295C81.0808 45.5478 80.8704 45.6344 80.6104 45.6891C80.3504 45.7431 80.0784 45.7884 79.7936 45.8226C79.5088 45.8567 79.2208 45.8964 78.9312 45.9409C78.6408 45.9854 78.3808 46.0568 78.1504 46.1561C77.92 46.2546 77.7328 46.3951 77.588 46.5786C77.4424 46.7612 77.3712 47.0106 77.3712 47.3266C77.3712 47.5339 77.4136 47.7094 77.4984 47.8523C77.5824 47.9961 77.6928 48.112 77.828 48.2009C77.9632 48.2899 78.1208 48.3542 78.3008 48.3939C78.4816 48.4336 78.6712 48.4527 78.8712 48.4527C79.2912 48.4527 79.6512 48.3963 79.9512 48.2827C80.2512 48.1692 80.4968 48.0254 80.6864 47.8523C80.876 47.68 81.0168 47.4918 81.1064 47.2893C81.196 47.0868 81.2416 46.8962 81.2416 46.7191L81.2408 45.4295Z" fill="#8C8F8F"/>
  <path d="M93.9776 38.7724C94.9976 38.7724 95.7952 39.0209 96.3704 39.5173C96.9456 40.0136 97.2328 40.6934 97.2328 41.5574C97.2328 42.203 97.0848 42.7684 96.7896 43.2552C96.4952 43.742 96.0224 44.0747 95.3728 44.2534V44.2828C95.6824 44.3423 95.9352 44.4416 96.1304 44.5806C96.3248 44.7195 96.4808 44.8855 96.5952 45.0793C96.7096 45.273 96.7952 45.489 96.8496 45.7273C96.9048 45.9655 96.9472 46.2141 96.9776 46.4722C96.9968 46.7302 97.012 46.9931 97.0224 47.2615C97.0328 47.5291 97.0576 47.7928 97.0976 48.0509C97.1376 48.3089 97.1952 48.5551 97.2704 48.7878C97.3456 49.0213 97.4576 49.2277 97.608 49.4056H96.0184C95.9176 49.2968 95.8504 49.1483 95.8152 48.9593C95.78 48.7711 95.7576 48.5599 95.748 48.3264C95.7376 48.0929 95.728 47.842 95.7176 47.5744C95.708 47.3068 95.6776 47.0439 95.628 46.785C95.588 46.5269 95.5384 46.2808 95.4776 46.0481C95.4176 45.8146 95.3232 45.6113 95.1928 45.4374C95.0632 45.2635 94.8928 45.1245 94.6824 45.0205C94.4728 44.9165 94.1928 44.8641 93.8424 44.8641H90.3616V49.4064H88.9368V38.7732H93.9776V38.7724ZM94.2776 43.5974C94.5776 43.5482 94.84 43.4505 95.0648 43.3068C95.2896 43.1631 95.4704 42.9693 95.6048 42.7263C95.74 42.4833 95.808 42.168 95.808 41.7805C95.808 41.2445 95.6576 40.8077 95.3584 40.4702C95.0584 40.1327 94.5728 39.9636 93.9032 39.9636H90.3624V43.6713H93.3328C93.6624 43.6721 93.9776 43.6475 94.2776 43.5974Z" fill="#8C8F8F"/>
  <path d="M105.559 49.3762C105.339 49.5049 105.034 49.5692 104.643 49.5692C104.314 49.5692 104.051 49.4779 103.856 49.2936C103.662 49.1102 103.564 48.81 103.564 48.3923C103.214 48.8092 102.806 49.1094 102.342 49.2936C101.877 49.4779 101.374 49.5692 100.834 49.5692C100.483 49.5692 100.15 49.5295 99.8359 49.4509C99.5215 49.3723 99.2487 49.2476 99.0183 49.0784C98.7887 48.9093 98.6055 48.6885 98.4711 48.4154C98.3359 48.1422 98.2679 47.8126 98.2679 47.4251C98.2679 46.9883 98.3431 46.631 98.4927 46.353C98.6423 46.0751 98.8407 45.8496 99.0855 45.6749C99.3303 45.5017 99.6103 45.3699 99.9255 45.2802C100.241 45.1904 100.563 45.1158 100.894 45.057C101.244 44.9879 101.577 44.9355 101.891 44.9006C102.206 44.8664 102.483 44.8164 102.724 44.7513C102.964 44.687 103.154 44.5925 103.294 44.4686C103.434 44.3447 103.504 44.1629 103.504 43.9246C103.504 43.6467 103.452 43.4235 103.346 43.2544C103.242 43.086 103.106 42.9566 102.942 42.8676C102.777 42.7779 102.591 42.7184 102.386 42.689C102.182 42.6588 101.979 42.6445 101.779 42.6445C101.238 42.6445 100.789 42.7461 100.429 42.9494C100.069 43.1527 99.8735 43.5379 99.8439 44.1041H98.5679C98.5879 43.6276 98.6879 43.2258 98.8679 42.8978C99.0487 42.5699 99.2879 42.3046 99.5879 42.1013C99.8879 41.898 100.231 41.7519 100.616 41.6622C101 41.5732 101.413 41.528 101.854 41.528C102.204 41.528 102.551 41.5534 102.896 41.6026C103.242 41.6519 103.554 41.7535 103.834 41.9076C104.114 42.0608 104.339 42.2768 104.51 42.554C104.679 42.8311 104.764 43.1932 104.764 43.6387V47.5919C104.764 47.8896 104.781 48.1072 104.816 48.2462C104.851 48.3844 104.968 48.4543 105.169 48.4543C105.278 48.4543 105.409 48.4344 105.558 48.3947V49.3762H105.559ZM103.49 45.4295C103.33 45.5478 103.119 45.6344 102.859 45.6891C102.599 45.7431 102.327 45.7884 102.042 45.8226C101.758 45.8567 101.47 45.8964 101.18 45.9409C100.89 45.9854 100.63 46.0568 100.399 46.1561C100.169 46.2546 99.9815 46.3951 99.8367 46.5786C99.6911 46.7612 99.6199 47.0106 99.6199 47.3266C99.6199 47.5339 99.6623 47.7094 99.7471 47.8523C99.8311 47.9961 99.9415 48.112 100.077 48.2009C100.212 48.2899 100.37 48.3542 100.55 48.3939C100.73 48.4336 100.92 48.4527 101.12 48.4527C101.54 48.4527 101.9 48.3963 102.2 48.2827C102.5 48.1692 102.746 48.0254 102.935 47.8523C103.125 47.68 103.266 47.4918 103.355 47.2893C103.445 47.0868 103.49 46.8962 103.49 46.7191V45.4295H103.49Z" fill="#8C8F8F"/>
  <path d="M107.958 41.7066V43.3298H107.987C108.298 42.7041 108.677 42.2427 109.127 41.9449C109.578 41.6471 110.147 41.5081 110.838 41.528V42.8676C110.328 42.8676 109.893 42.9367 109.533 43.0765C109.173 43.2155 108.883 43.4188 108.662 43.6872C108.442 43.9556 108.282 44.2804 108.182 44.6631C108.082 45.0451 108.032 45.4851 108.032 45.9814V49.4064H106.756V41.7074H107.958V41.7066Z" fill="#8C8F8F"/>
  <path d="M117.226 48.9141C116.646 49.3516 115.915 49.5692 115.036 49.5692C114.416 49.5692 113.878 49.4699 113.422 49.2714C112.968 49.0729 112.585 48.7949 112.274 48.4376C111.964 48.0802 111.732 47.653 111.577 47.1567C111.422 46.6604 111.334 46.1196 111.314 45.5335C111.314 44.9474 111.405 44.4114 111.585 43.9254C111.765 43.4394 112.018 43.0169 112.342 42.6596C112.667 42.3022 113.053 42.0243 113.497 41.8258C113.942 41.6272 114.43 41.528 114.96 41.528C115.65 41.528 116.222 41.6693 116.677 41.9528C117.132 42.2355 117.497 42.5961 117.772 43.032C118.047 43.4688 118.237 43.9453 118.342 44.4614C118.447 44.9776 118.49 45.4692 118.47 45.9353H112.664C112.654 46.2728 112.694 46.5936 112.783 46.8962C112.873 47.1988 113.018 47.4672 113.218 47.7006C113.418 47.9333 113.673 48.1199 113.983 48.2589C114.294 48.3979 114.659 48.467 115.078 48.467C115.619 48.467 116.062 48.3431 116.406 48.0945C116.751 47.8468 116.978 47.4688 117.089 46.9629H118.349C118.182 47.8269 117.806 48.4773 117.226 48.9141ZM116.919 43.9699C116.803 43.7023 116.649 43.4712 116.454 43.2774C116.259 43.0836 116.029 42.9296 115.764 42.816C115.499 42.7017 115.206 42.6445 114.886 42.6445C114.556 42.6445 114.258 42.7017 113.994 42.816C113.729 42.9304 113.501 43.086 113.31 43.2846C113.121 43.4831 112.97 43.7142 112.861 43.977C112.75 44.2407 112.686 44.521 112.666 44.8188H117.122C117.101 44.521 117.034 44.2383 116.919 43.9699Z" fill="#8C8F8F"/>
  <path d="M127.908 38.7724C129.558 38.7724 130.827 39.1893 131.718 40.0231C132.608 40.8569 133.054 42.1283 133.054 43.8357C133.054 44.7291 132.954 45.5216 132.754 46.2109C132.554 46.901 132.243 47.4823 131.823 47.9532C131.404 48.4249 130.869 48.7846 130.218 49.0332C129.568 49.2809 128.798 49.4056 127.908 49.4056H124.232V38.7724H127.908ZM128.027 48.2144C128.187 48.2144 128.387 48.2017 128.627 48.1771C128.867 48.1525 129.122 48.0929 129.393 47.9984C129.662 47.9039 129.93 47.7674 130.195 47.5887C130.46 47.41 130.698 47.167 130.908 46.8589C131.118 46.5508 131.291 46.1664 131.426 45.7042C131.56 45.2429 131.628 44.6838 131.628 44.0294C131.628 43.3942 131.566 42.8256 131.441 42.3245C131.316 41.8234 131.11 41.3961 130.825 41.0436C130.541 40.6918 130.173 40.4234 129.722 40.2391C129.273 40.0557 128.717 39.9636 128.058 39.9636H125.657V48.2136H128.027V48.2144Z" fill="#8C8F8F"/>
  <path d="M134.149 40.3217V38.7724H135.424V40.3217H134.149ZM135.424 41.7066V49.4056H134.149V41.7066H135.424Z" fill="#8C8F8F"/>
  <path d="M138.094 47.6856C138.214 47.8793 138.371 48.0334 138.566 48.1477C138.762 48.2621 138.982 48.3439 139.226 48.3931C139.472 48.4431 139.724 48.4678 139.984 48.4678C140.184 48.4678 140.394 48.4527 140.614 48.4233C140.834 48.3939 141.036 48.3391 141.222 48.2597C141.407 48.1803 141.559 48.0636 141.679 47.9095C141.798 47.7562 141.859 47.5601 141.859 47.3211C141.859 46.9931 141.734 46.7453 141.484 46.5762C141.234 46.4078 140.922 46.2712 140.546 46.1664C140.171 46.0616 139.763 45.9679 139.324 45.8837C138.883 45.7995 138.476 45.6804 138.102 45.5264C137.726 45.3731 137.414 45.1571 137.164 44.8791C136.914 44.6012 136.789 44.2145 136.789 43.7174C136.789 43.3306 136.875 42.9979 137.051 42.7199C137.226 42.442 137.45 42.2165 137.726 42.0418C138.002 41.8686 138.311 41.7392 138.656 41.655C139.002 41.5709 139.343 41.528 139.684 41.528C140.124 41.528 140.529 41.5653 140.899 41.6399C141.27 41.7146 141.597 41.844 141.882 42.0275C142.167 42.2109 142.395 42.4595 142.566 42.7724C142.735 43.0852 142.835 43.4751 142.866 43.9413H141.59C141.57 43.6935 141.506 43.4871 141.395 43.3235C141.285 43.1599 141.146 43.0281 140.975 42.9288C140.805 42.8295 140.618 42.7573 140.413 42.7128C140.207 42.6675 140 42.6461 139.79 42.6461C139.601 42.6461 139.407 42.6612 139.213 42.6906C139.018 42.7207 138.84 42.7724 138.68 42.847C138.52 42.9216 138.39 43.0209 138.29 43.1448C138.19 43.2695 138.14 43.4307 138.14 43.6292C138.14 43.8476 138.218 44.0286 138.372 44.1724C138.527 44.3169 138.725 44.436 138.965 44.5297C139.205 44.6242 139.475 44.7036 139.775 44.768C140.075 44.8323 140.375 44.8998 140.675 44.9689C140.995 45.0388 141.308 45.1229 141.613 45.2222C141.918 45.3215 142.188 45.4533 142.423 45.6169C142.658 45.7805 142.848 45.9869 142.994 46.2347C143.138 46.4825 143.21 46.7906 143.21 47.1583C143.21 47.6252 143.114 48.0119 142.918 48.3193C142.723 48.6274 142.469 48.8759 142.154 49.0641C141.838 49.2531 141.483 49.3842 141.088 49.4588C140.693 49.5335 140.301 49.5708 139.91 49.5708C139.48 49.5708 139.07 49.5263 138.68 49.4366C138.29 49.3477 137.945 49.2007 137.645 48.9974C137.345 48.7941 137.105 48.5257 136.925 48.193C136.745 47.8603 136.645 47.4561 136.625 46.9796H137.901C137.909 47.2559 137.974 47.4918 138.094 47.6856Z" fill="#8C8F8F"/>
  <path d="M149.795 48.9141C149.215 49.3516 148.485 49.5692 147.606 49.5692C146.986 49.5692 146.448 49.4699 145.992 49.2714C145.538 49.0729 145.154 48.7949 144.844 48.4376C144.534 48.0802 144.302 47.653 144.146 47.1567C143.992 46.6604 143.904 46.1196 143.884 45.5335C143.884 44.9474 143.974 44.4114 144.154 43.9254C144.334 43.4394 144.587 43.0169 144.912 42.6596C145.237 42.3022 145.622 42.0243 146.066 41.8258C146.512 41.6272 146.999 41.528 147.53 41.528C148.219 41.528 148.792 41.6693 149.246 41.9528C149.702 42.2355 150.066 42.5961 150.342 43.032C150.617 43.4688 150.806 43.9453 150.912 44.4614C151.017 44.9776 151.06 45.4692 151.039 45.9353H145.234C145.223 46.2728 145.263 46.5936 145.353 46.8962C145.442 47.1988 145.588 47.4672 145.788 47.7006C145.988 47.9333 146.242 48.1199 146.553 48.2589C146.863 48.3979 147.229 48.467 147.648 48.467C148.189 48.467 148.631 48.3431 148.976 48.0945C149.321 47.8468 149.548 47.4688 149.658 46.9629H150.918C150.751 47.8269 150.376 48.4773 149.795 48.9141ZM149.489 43.9699C149.373 43.7023 149.218 43.4712 149.023 43.2774C148.829 43.0836 148.598 42.9296 148.334 42.816C148.069 42.7017 147.776 42.6445 147.456 42.6445C147.126 42.6445 146.828 42.7017 146.563 42.816C146.298 42.9304 146.07 43.086 145.88 43.2846C145.69 43.4831 145.54 43.7142 145.43 43.977C145.32 44.2407 145.255 44.521 145.236 44.8188H149.691C149.67 44.521 149.603 44.2383 149.489 43.9699Z" fill="#8C8F8F"/>
  <path d="M159.254 49.3762C159.034 49.5049 158.73 49.5692 158.338 49.5692C158.009 49.5692 157.746 49.4779 157.551 49.2936C157.357 49.1102 157.259 48.81 157.259 48.3923C156.909 48.8092 156.502 49.1094 156.037 49.2936C155.572 49.4779 155.069 49.5692 154.529 49.5692C154.178 49.5692 153.846 49.5295 153.531 49.4509C153.217 49.3723 152.944 49.2476 152.714 49.0784C152.484 48.9093 152.301 48.6885 152.166 48.4154C152.031 48.1422 151.963 47.8126 151.963 47.4251C151.963 46.9883 152.038 46.631 152.188 46.353C152.338 46.0751 152.536 45.8496 152.781 45.6749C153.026 45.5017 153.306 45.3699 153.621 45.2802C153.936 45.1904 154.258 45.1158 154.589 45.057C154.939 44.9879 155.272 44.9355 155.586 44.9006C155.902 44.8664 156.178 44.8164 156.419 44.7513C156.659 44.687 156.849 44.5925 156.989 44.4686C157.129 44.3447 157.199 44.1629 157.199 43.9246C157.199 43.6467 157.147 43.4235 157.042 43.2544C156.937 43.086 156.802 42.9566 156.637 42.8676C156.472 42.7779 156.286 42.7184 156.082 42.689C155.877 42.6588 155.674 42.6445 155.474 42.6445C154.934 42.6445 154.484 42.7461 154.124 42.9494C153.764 43.1527 153.569 43.5379 153.539 44.1041H152.263C152.283 43.6276 152.383 43.2258 152.563 42.8978C152.744 42.5699 152.983 42.3046 153.283 42.1013C153.583 41.898 153.926 41.7519 154.311 41.6622C154.695 41.5732 155.108 41.528 155.549 41.528C155.899 41.528 156.246 41.5534 156.591 41.6026C156.937 41.6519 157.249 41.7535 157.53 41.9076C157.81 42.0608 158.034 42.2768 158.205 42.554C158.374 42.8311 158.459 43.1932 158.459 43.6387V47.5919C158.459 47.8896 158.476 48.1072 158.511 48.2462C158.546 48.3844 158.663 48.4543 158.864 48.4543C158.974 48.4543 159.104 48.4344 159.254 48.3947L159.254 49.3762ZM157.184 45.4295C157.024 45.5478 156.814 45.6344 156.554 45.6891C156.294 45.7431 156.022 45.7884 155.737 45.8226C155.452 45.8567 155.164 45.8964 154.874 45.9409C154.584 45.9854 154.324 46.0568 154.094 46.1561C153.863 46.2546 153.676 46.3951 153.531 46.5786C153.386 46.7612 153.314 47.0106 153.314 47.3266C153.314 47.5339 153.357 47.7094 153.442 47.8523C153.526 47.9961 153.636 48.112 153.771 48.2009C153.906 48.2899 154.064 48.3542 154.244 48.3939C154.425 48.4336 154.614 48.4527 154.814 48.4527C155.234 48.4527 155.594 48.3963 155.894 48.2827C156.194 48.1692 156.44 48.0254 156.63 47.8523C156.819 47.68 156.96 47.4918 157.05 47.2893C157.139 47.0868 157.185 46.8962 157.185 46.7191V45.4295H157.184Z" fill="#8C8F8F"/>
  <path d="M161.45 47.6856C161.57 47.8793 161.728 48.0334 161.923 48.1477C162.118 48.2621 162.338 48.3439 162.583 48.3931C162.829 48.4431 163.081 48.4678 163.341 48.4678C163.541 48.4678 163.75 48.4527 163.97 48.4233C164.19 48.3939 164.393 48.3391 164.578 48.2597C164.764 48.1803 164.916 48.0636 165.036 47.9095C165.155 47.7562 165.216 47.5601 165.216 47.3211C165.216 46.9931 165.091 46.7453 164.841 46.5762C164.591 46.4078 164.278 46.2712 163.903 46.1664C163.528 46.0616 163.12 45.9679 162.681 45.8837C162.24 45.7995 161.833 45.6804 161.458 45.5264C161.083 45.3731 160.77 45.1571 160.521 44.8791C160.27 44.6012 160.146 44.2145 160.146 43.7174C160.146 43.3306 160.232 42.9979 160.408 42.7199C160.582 42.442 160.807 42.2165 161.083 42.0418C161.358 41.8686 161.668 41.7392 162.013 41.655C162.358 41.5709 162.7 41.528 163.041 41.528C163.481 41.528 163.886 41.5653 164.256 41.6399C164.626 41.7146 164.954 41.844 165.239 42.0275C165.524 42.2109 165.752 42.4595 165.922 42.7724C166.092 43.0852 166.192 43.4751 166.222 43.9413H164.946C164.927 43.6935 164.862 43.4871 164.752 43.3235C164.642 43.1599 164.502 43.0281 164.332 42.9288C164.162 42.8295 163.974 42.7573 163.77 42.7128C163.564 42.6675 163.357 42.6461 163.147 42.6461C162.958 42.6461 162.764 42.6612 162.57 42.6906C162.374 42.7207 162.197 42.7724 162.037 42.847C161.877 42.9216 161.747 43.0209 161.647 43.1448C161.547 43.2695 161.497 43.4307 161.497 43.6292C161.497 43.8476 161.574 44.0286 161.729 44.1724C161.884 44.3169 162.082 44.436 162.322 44.5297C162.562 44.6242 162.832 44.7036 163.132 44.768C163.432 44.8323 163.732 44.8998 164.032 44.9689C164.352 45.0388 164.665 45.1229 164.97 45.2222C165.275 45.3215 165.545 45.4533 165.78 45.6169C166.015 45.7805 166.205 45.9869 166.35 46.2347C166.495 46.4825 166.567 46.7906 166.567 47.1583C166.567 47.6252 166.47 48.0119 166.275 48.3193C166.08 48.6274 165.826 48.8759 165.51 49.0641C165.194 49.2531 164.84 49.3842 164.445 49.4588C164.05 49.5335 163.658 49.5708 163.267 49.5708C162.837 49.5708 162.426 49.5263 162.037 49.4366C161.647 49.3477 161.302 49.2007 161.002 48.9974C160.702 48.7941 160.462 48.5257 160.282 48.193C160.102 47.8603 160.002 47.4561 159.982 46.9796H161.258C161.265 47.2559 161.33 47.4918 161.45 47.6856Z" fill="#8C8F8F"/>
  <path d="M173.152 48.9141C172.572 49.3516 171.842 49.5692 170.962 49.5692C170.342 49.5692 169.805 49.4699 169.349 49.2714C168.894 49.0729 168.511 48.7949 168.201 48.4376C167.89 48.0802 167.658 47.653 167.503 47.1567C167.349 46.6604 167.261 46.1196 167.241 45.5335C167.241 44.9474 167.331 44.4114 167.511 43.9254C167.691 43.4394 167.944 43.0169 168.269 42.6596C168.594 42.3022 168.979 42.0243 169.423 41.8258C169.869 41.6272 170.356 41.528 170.886 41.528C171.576 41.528 172.149 41.6693 172.603 41.9528C173.058 42.2355 173.423 42.5961 173.698 43.032C173.974 43.4688 174.163 43.9453 174.269 44.4614C174.374 44.9776 174.417 45.4692 174.396 45.9353H168.59C168.58 46.2728 168.62 46.5936 168.71 46.8962C168.799 47.1988 168.945 47.4672 169.145 47.7006C169.345 47.9333 169.599 48.1199 169.91 48.2589C170.22 48.3979 170.586 48.467 171.005 48.467C171.546 48.467 171.988 48.3431 172.333 48.0945C172.678 47.8468 172.905 47.4688 173.015 46.9629H174.275C174.107 47.8269 173.732 48.4773 173.152 48.9141ZM172.845 43.9699C172.729 43.7023 172.574 43.4712 172.379 43.2774C172.185 43.0836 171.954 42.9296 171.69 42.816C171.425 42.7017 171.132 42.6445 170.812 42.6445C170.482 42.6445 170.184 42.7017 169.919 42.816C169.654 42.9304 169.426 43.086 169.236 43.2846C169.046 43.4831 168.896 43.7142 168.786 43.977C168.676 44.2407 168.611 44.521 168.592 44.8188H173.047C173.026 44.521 172.959 44.2383 172.845 43.9699Z" fill="#8C8F8F"/>
</svg>